<svg width="21" height="20" viewBox="0 0 21 20" fill="none" xmlns="http://www.w3.org/2000/svg">
<path d="M20.2619 10.1878C20.2619 9.3684 20.1954 8.77046 20.0515 8.15039H10.6948V11.8487H16.187C16.0763 12.7678 15.4783 14.1519 14.1496 15.082L14.1309 15.2058L17.0893 17.4977L17.2943 17.5181C19.1767 15.7797 20.2619 13.2218 20.2619 10.1878Z" fill="#4285F4"/>
<path d="M10.6947 19.9313C13.3854 19.9313 15.6443 19.0454 17.2942 17.5173L14.1495 15.0812C13.3079 15.6681 12.1785 16.0778 10.6947 16.0778C8.05936 16.0778 5.82263 14.3394 5.0253 11.9365L4.90842 11.9464L1.83222 14.3271L1.79199 14.439C3.43078 17.6944 6.79699 19.9313 10.6947 19.9313Z" fill="#34A853"/>
<path d="M5.02526 11.9373C4.81488 11.3172 4.69313 10.6528 4.69313 9.96633C4.69313 9.27976 4.81488 8.61541 5.01419 7.99533L5.00862 7.86327L1.89389 5.44434L1.79198 5.49281C1.11656 6.84373 0.729004 8.36075 0.729004 9.96633C0.729004 11.5719 1.11656 13.0888 1.79198 14.4398L5.02526 11.9373Z" fill="#FBBC05"/>
<path d="M10.6947 3.85336C12.566 3.85336 13.8283 4.66168 14.548 5.33718L17.3605 2.59107C15.6332 0.985496 13.3854 0 10.6947 0C6.79695 0 3.43077 2.23672 1.79199 5.49214L5.01421 7.99466C5.8226 5.59183 8.05932 3.85336 10.6947 3.85336Z" fill="#EB4335"/>
</svg>
