<svg width="80" height="80" viewBox="0 0 80 80" fill="none" xmlns="http://www.w3.org/2000/svg">
<g opacity="0.5" filter="url(#filter0_d_130_5662)">
<path d="M64.199 32.6671H58.7437C58.3793 32.6666 58.0628 32.4165 57.9794 32.062C57.2099 28.6537 55.4922 25.5326 53.0239 23.0591C50.5562 20.5857 47.4389 18.8605 44.0325 18.0833C43.678 17.9995 43.4278 17.6834 43.4274 17.319V11.8955C43.4278 11.6619 43.5302 11.4406 43.7079 11.2895C43.8856 11.1383 44.1206 11.0725 44.3509 11.1099C49.4935 12.0125 54.2327 14.478 57.9245 18.1695C61.6162 21.8617 64.0816 26.601 64.9842 31.7432C65.0216 31.9735 64.9558 32.2085 64.8046 32.3862C64.6534 32.5639 64.4322 32.6662 64.1986 32.6667L64.199 32.6671Z" fill="url(#paint0_linear_130_5662)" fill-opacity="0.5" stroke="url(#paint1_linear_130_5662)"/>
<path d="M36.5083 54.9028V60.3586V60.3581C36.5078 60.5917 36.4054 60.813 36.2278 60.9641C36.0501 61.1153 35.8151 61.1812 35.5848 61.1437C30.4422 60.2411 25.7029 57.7757 22.0111 54.0841C18.3194 50.3919 15.8541 45.6526 14.9514 40.5104C14.914 40.2801 14.9799 40.0451 15.131 39.8674C15.2822 39.6897 15.5035 39.5874 15.7371 39.5869H21.1929H21.1924C21.5568 39.5874 21.8733 39.8376 21.9567 40.192C22.7262 43.6003 24.4439 46.7214 26.9121 49.1949C29.3799 51.6684 32.4972 53.3935 35.9036 54.1707C36.2467 54.2513 36.494 54.5507 36.5087 54.9033L36.5083 54.9028Z" fill="url(#paint2_linear_130_5662)" fill-opacity="0.5" stroke="url(#paint3_linear_130_5662)"/>
<path d="M64.199 32.6671H58.7437C58.3793 32.6666 58.0628 32.4165 57.9794 32.062C57.2099 28.6537 55.4922 25.5326 53.0239 23.0591C50.5562 20.5857 47.4389 18.8605 44.0325 18.0833C43.678 17.9995 43.4278 17.6834 43.4274 17.319V11.8955C43.4278 11.6619 43.5302 11.4406 43.7079 11.2895C43.8856 11.1383 44.1206 11.0725 44.3509 11.1099C49.4935 12.0125 54.2327 14.478 57.9245 18.1695C61.6162 21.8617 64.0816 26.601 64.9842 31.7432C65.0216 31.9735 64.9558 32.2085 64.8046 32.3862C64.6534 32.5639 64.4322 32.6662 64.1986 32.6667L64.199 32.6671Z" fill="url(#paint4_linear_130_5662)" fill-opacity="0.5" stroke="url(#paint5_linear_130_5662)"/>
<path d="M36.5082 11.8944V17.3502V17.3497C36.5077 17.7141 36.2575 18.0306 35.9031 18.114C32.4943 18.8826 29.3722 20.5997 26.8989 23.068C24.4249 25.5357 22.7007 28.6535 21.9245 32.0609C21.8407 32.4153 21.5246 32.6655 21.1602 32.666H15.7367C15.5031 32.6655 15.2818 32.5632 15.1307 32.3855C14.9795 32.2078 14.9136 31.9728 14.9511 31.7425C15.8533 26.6014 18.3167 21.8631 22.0065 18.1713C25.6962 14.4794 30.4337 12.0137 35.5741 11.1087C35.8063 11.068 36.0441 11.1319 36.2247 11.2835C36.4047 11.4352 36.5085 11.6588 36.5085 11.8943L36.5082 11.8944Z" fill="url(#paint6_linear_130_5662)" fill-opacity="0.5" stroke="url(#paint7_linear_130_5662)"/>
<path d="M64.985 40.5208C64.0809 45.6595 61.6164 50.3955 57.9267 54.0847C54.2369 57.774 49.5009 60.2389 44.3627 61.1431C44.1324 61.1805 43.8969 61.1146 43.7192 60.9635C43.5416 60.8123 43.4392 60.591 43.4392 60.3574V54.9021C43.4392 54.5377 43.6899 54.2212 44.0443 54.1378C47.4502 53.3664 50.5695 51.6479 53.0405 49.1801C55.512 46.7123 57.2354 43.5965 58.012 40.191C58.0958 39.8366 58.4119 39.5864 58.7763 39.5859H64.232H64.2316C64.4618 39.5949 64.6765 39.7025 64.821 39.8816C64.9655 40.0607 65.0252 40.2934 64.9854 40.5203L64.985 40.5208Z" fill="url(#paint8_linear_130_5662)" fill-opacity="0.5" stroke="url(#paint9_linear_130_5662)"/>
<path d="M36.5083 54.9028V60.3586V60.3581C36.5078 60.5917 36.4054 60.813 36.2278 60.9641C36.0501 61.1153 35.8151 61.1812 35.5848 61.1437C30.4422 60.2411 25.7029 57.7757 22.0111 54.0841C18.3194 50.3919 15.8541 45.6526 14.9514 40.5104C14.914 40.2801 14.9799 40.0451 15.131 39.8674C15.2822 39.6897 15.5035 39.5874 15.7371 39.5869H21.1929H21.1924C21.5568 39.5874 21.8733 39.8376 21.9567 40.192C22.7262 43.6003 24.4439 46.7214 26.9121 49.1949C29.3799 51.6684 32.4972 53.3935 35.9036 54.1707C36.2467 54.2513 36.494 54.5507 36.5087 54.9033L36.5083 54.9028Z" fill="url(#paint10_linear_130_5662)" fill-opacity="0.5" stroke="url(#paint11_linear_130_5662)"/>
<path d="M52.1841 32.6668H49.86C49.5453 32.6663 49.2615 32.4782 49.1383 32.1892C48.1276 29.8456 46.2593 27.9772 43.9161 26.967C43.6266 26.8438 43.439 26.5595 43.4385 26.2454V23.9103C43.4357 23.6511 43.5612 23.4076 43.7735 23.2592C43.9858 23.1105 44.2573 23.0764 44.4999 23.1673C48.4778 24.5528 51.605 27.6801 52.991 31.6585C53.0645 31.9053 53.0128 32.1726 52.8517 32.3735C52.6906 32.5748 52.4414 32.6843 52.1841 32.6668Z" fill="url(#paint12_linear_130_5662)" fill-opacity="0.5" stroke="url(#paint13_linear_130_5662)"/>
<path d="M36.5082 23.9101V26.2347V26.2342C36.5078 26.5489 36.3196 26.8327 36.0306 26.9559C33.6884 27.9685 31.8206 29.8358 30.8084 32.178C30.6852 32.4676 30.4009 32.6552 30.0868 32.6557H27.7517C27.4944 32.6533 27.2542 32.5268 27.1068 32.3164C26.9595 32.1055 26.923 31.8369 27.0088 31.5943C28.3943 27.6164 31.5215 24.4891 35.4999 23.1032C35.7463 23.0349 36.0107 23.0889 36.2102 23.2486C36.4101 23.4083 36.521 23.6542 36.5082 23.9101Z" fill="url(#paint14_linear_130_5662)" fill-opacity="0.5" stroke="url(#paint15_linear_130_5662)"/>
<path d="M52.9276 40.6471C51.5421 44.6254 48.4148 47.7527 44.4365 49.1382C44.1944 49.224 43.9253 49.1875 43.7149 49.0401C43.504 48.8928 43.378 48.6526 43.3751 48.3953V46.018C43.3756 45.7034 43.5637 45.4195 43.8527 45.2963C46.195 44.2837 48.0628 42.4164 49.0749 40.0742C49.1981 39.7847 49.4824 39.597 49.7966 39.5966H52.1212C52.3865 39.5785 52.6438 39.6946 52.8059 39.906C52.9679 40.1173 53.0134 40.3955 52.9276 40.6471Z" fill="url(#paint16_linear_130_5662)" fill-opacity="0.5" stroke="url(#paint17_linear_130_5662)"/>
<path d="M36.5083 46.0186V48.3432V48.3428C36.5107 48.602 36.3851 48.8455 36.1733 48.9938C35.961 49.1426 35.689 49.1767 35.4469 49.0858C31.4686 47.7002 28.3413 44.573 26.9558 40.5946C26.8648 40.3525 26.8989 40.0805 27.0477 39.8682C27.196 39.6564 27.4396 39.5309 27.6988 39.5332H30.0234H30.0229C30.3375 39.5337 30.6214 39.7218 30.7446 40.0109C31.7552 42.3544 33.6235 44.2228 35.9667 45.233C36.3036 45.343 36.5254 45.6647 36.5083 46.0186Z" fill="url(#paint18_linear_130_5662)" fill-opacity="0.5" stroke="url(#paint19_linear_130_5662)"/>
<rect x="38.1361" y="1.15625" width="3.31361" height="25.2663" rx="1.6568" fill="url(#paint20_linear_130_5662)" fill-opacity="0.5" stroke="url(#paint21_linear_130_5662)"/>
<rect x="38.1361" y="45.8896" width="3.31361" height="25.2663" rx="1.6568" fill="url(#paint22_linear_130_5662)" fill-opacity="0.5" stroke="url(#paint23_linear_130_5662)"/>
<rect x="38.1361" y="34.292" width="3.31361" height="3.31361" rx="1.6568" fill="url(#paint24_linear_130_5662)" fill-opacity="0.5" stroke="url(#paint25_linear_130_5662)"/>
<rect x="75" y="34.292" width="3.31361" height="25.2663" rx="1.6568" transform="rotate(90 75 34.292)" fill="url(#paint26_linear_130_5662)" fill-opacity="0.5" stroke="url(#paint27_linear_130_5662)"/>
<rect x="30.2662" y="34.292" width="3.31361" height="25.2663" rx="1.6568" transform="rotate(90 30.2662 34.292)" fill="url(#paint28_linear_130_5662)" fill-opacity="0.5" stroke="url(#paint29_linear_130_5662)"/>
</g>
<defs>
<filter id="filter0_d_130_5662" x="0.5" y="0.65625" width="79" height="79" filterUnits="userSpaceOnUse" color-interpolation-filters="sRGB">
<feFlood flood-opacity="0" result="BackgroundImageFix"/>
<feColorMatrix in="SourceAlpha" type="matrix" values="0 0 0 0 0 0 0 0 0 0 0 0 0 0 0 0 0 0 127 0" result="hardAlpha"/>
<feOffset dy="4"/>
<feGaussianBlur stdDeviation="2"/>
<feComposite in2="hardAlpha" operator="out"/>
<feColorMatrix type="matrix" values="0 0 0 0 0 0 0 0 0 0 0 0 0 0 0 0 0 0 0.25 0"/>
<feBlend mode="normal" in2="BackgroundImageFix" result="effect1_dropShadow_130_5662"/>
<feBlend mode="normal" in="SourceGraphic" in2="effect1_dropShadow_130_5662" result="shape"/>
</filter>
<linearGradient id="paint0_linear_130_5662" x1="54.2109" y1="11.0996" x2="54.2109" y2="32.6671" gradientUnits="userSpaceOnUse">
<stop stop-color="#7577FF" stop-opacity="0"/>
<stop offset="1" stop-color="#5E60DA"/>
</linearGradient>
<linearGradient id="paint1_linear_130_5662" x1="54.2109" y1="11.0996" x2="54.2109" y2="32.6671" gradientUnits="userSpaceOnUse">
<stop stop-color="white" stop-opacity="0"/>
<stop offset="1" stop-color="#5E60DA"/>
</linearGradient>
<linearGradient id="paint2_linear_130_5662" x1="25.7249" y1="39.5869" x2="25.7249" y2="61.154" gradientUnits="userSpaceOnUse">
<stop stop-color="#7577FF" stop-opacity="0"/>
<stop offset="1" stop-color="#5E60DA"/>
</linearGradient>
<linearGradient id="paint3_linear_130_5662" x1="25.7249" y1="39.5869" x2="25.7249" y2="61.154" gradientUnits="userSpaceOnUse">
<stop stop-color="white" stop-opacity="0"/>
<stop offset="1" stop-color="#5E60DA"/>
</linearGradient>
<linearGradient id="paint4_linear_130_5662" x1="54.2109" y1="11.0996" x2="54.2109" y2="32.6671" gradientUnits="userSpaceOnUse">
<stop stop-color="#7577FF" stop-opacity="0"/>
<stop offset="1" stop-color="#5E60DA"/>
</linearGradient>
<linearGradient id="paint5_linear_130_5662" x1="54.2109" y1="11.0996" x2="54.2109" y2="32.6671" gradientUnits="userSpaceOnUse">
<stop stop-color="white" stop-opacity="0"/>
<stop offset="1" stop-color="#5E60DA"/>
</linearGradient>
<linearGradient id="paint6_linear_130_5662" x1="25.7246" y1="11.0967" x2="25.7246" y2="32.666" gradientUnits="userSpaceOnUse">
<stop stop-color="#7577FF" stop-opacity="0"/>
<stop offset="1" stop-color="#5E60DA"/>
</linearGradient>
<linearGradient id="paint7_linear_130_5662" x1="25.7246" y1="11.0967" x2="25.7246" y2="32.666" gradientUnits="userSpaceOnUse">
<stop stop-color="white" stop-opacity="0"/>
<stop offset="1" stop-color="#5E60DA"/>
</linearGradient>
<linearGradient id="paint8_linear_130_5662" x1="54.2184" y1="39.5859" x2="54.2184" y2="61.1533" gradientUnits="userSpaceOnUse">
<stop stop-color="#7577FF" stop-opacity="0"/>
<stop offset="1" stop-color="#5E60DA"/>
</linearGradient>
<linearGradient id="paint9_linear_130_5662" x1="54.2184" y1="39.5859" x2="54.2184" y2="61.1533" gradientUnits="userSpaceOnUse">
<stop stop-color="white" stop-opacity="0"/>
<stop offset="1" stop-color="#5E60DA"/>
</linearGradient>
<linearGradient id="paint10_linear_130_5662" x1="25.7249" y1="39.5869" x2="25.7249" y2="61.154" gradientUnits="userSpaceOnUse">
<stop stop-color="#7577FF" stop-opacity="0"/>
<stop offset="1" stop-color="#5E60DA"/>
</linearGradient>
<linearGradient id="paint11_linear_130_5662" x1="25.7249" y1="39.5869" x2="25.7249" y2="61.154" gradientUnits="userSpaceOnUse">
<stop stop-color="white" stop-opacity="0"/>
<stop offset="1" stop-color="#5E60DA"/>
</linearGradient>
<linearGradient id="paint12_linear_130_5662" x1="48.2311" y1="23.1172" x2="48.2311" y2="32.6686" gradientUnits="userSpaceOnUse">
<stop stop-color="#7577FF" stop-opacity="0"/>
<stop offset="1" stop-color="#5E60DA"/>
</linearGradient>
<linearGradient id="paint13_linear_130_5662" x1="48.2311" y1="23.1172" x2="48.2311" y2="32.6686" gradientUnits="userSpaceOnUse">
<stop stop-color="white" stop-opacity="0"/>
<stop offset="1" stop-color="#5E60DA"/>
</linearGradient>
<linearGradient id="paint14_linear_130_5662" x1="31.7362" y1="23.0742" x2="31.7362" y2="32.6557" gradientUnits="userSpaceOnUse">
<stop stop-color="#7577FF" stop-opacity="0"/>
<stop offset="1" stop-color="#5E60DA"/>
</linearGradient>
<linearGradient id="paint15_linear_130_5662" x1="31.7362" y1="23.0742" x2="31.7362" y2="32.6557" gradientUnits="userSpaceOnUse">
<stop stop-color="white" stop-opacity="0"/>
<stop offset="1" stop-color="#5E60DA"/>
</linearGradient>
<linearGradient id="paint16_linear_130_5662" x1="48.1727" y1="39.5947" x2="48.1727" y2="49.1839" gradientUnits="userSpaceOnUse">
<stop stop-color="#7577FF" stop-opacity="0"/>
<stop offset="1" stop-color="#5E60DA"/>
</linearGradient>
<linearGradient id="paint17_linear_130_5662" x1="48.1727" y1="39.5947" x2="48.1727" y2="49.1839" gradientUnits="userSpaceOnUse">
<stop stop-color="white" stop-opacity="0"/>
<stop offset="1" stop-color="#5E60DA"/>
</linearGradient>
<linearGradient id="paint18_linear_130_5662" x1="31.7074" y1="39.5332" x2="31.7074" y2="49.1359" gradientUnits="userSpaceOnUse">
<stop stop-color="#7577FF" stop-opacity="0"/>
<stop offset="1" stop-color="#5E60DA"/>
</linearGradient>
<linearGradient id="paint19_linear_130_5662" x1="31.7074" y1="39.5332" x2="31.7074" y2="49.1359" gradientUnits="userSpaceOnUse">
<stop stop-color="white" stop-opacity="0"/>
<stop offset="1" stop-color="#5E60DA"/>
</linearGradient>
<linearGradient id="paint20_linear_130_5662" x1="39.7929" y1="1.15625" x2="39.7929" y2="26.4225" gradientUnits="userSpaceOnUse">
<stop stop-color="#7577FF" stop-opacity="0"/>
<stop offset="1" stop-color="#5E60DA"/>
</linearGradient>
<linearGradient id="paint21_linear_130_5662" x1="39.7929" y1="1.15625" x2="39.7929" y2="26.4225" gradientUnits="userSpaceOnUse">
<stop stop-color="white" stop-opacity="0"/>
<stop offset="1" stop-color="#5E60DA"/>
</linearGradient>
<linearGradient id="paint22_linear_130_5662" x1="39.7929" y1="45.8896" x2="39.7929" y2="71.1559" gradientUnits="userSpaceOnUse">
<stop stop-color="#7577FF" stop-opacity="0"/>
<stop offset="1" stop-color="#5E60DA"/>
</linearGradient>
<linearGradient id="paint23_linear_130_5662" x1="39.7929" y1="45.8896" x2="39.7929" y2="71.1559" gradientUnits="userSpaceOnUse">
<stop stop-color="white" stop-opacity="0"/>
<stop offset="1" stop-color="#5E60DA"/>
</linearGradient>
<linearGradient id="paint24_linear_130_5662" x1="39.7929" y1="34.292" x2="39.7929" y2="37.6056" gradientUnits="userSpaceOnUse">
<stop stop-color="#7577FF" stop-opacity="0"/>
<stop offset="1" stop-color="#5E60DA"/>
</linearGradient>
<linearGradient id="paint25_linear_130_5662" x1="39.7929" y1="34.292" x2="39.7929" y2="37.6056" gradientUnits="userSpaceOnUse">
<stop stop-color="white" stop-opacity="0"/>
<stop offset="1" stop-color="#5E60DA"/>
</linearGradient>
<linearGradient id="paint26_linear_130_5662" x1="76.6568" y1="34.292" x2="76.6568" y2="59.5583" gradientUnits="userSpaceOnUse">
<stop stop-color="#7577FF" stop-opacity="0"/>
<stop offset="1" stop-color="#5E60DA"/>
</linearGradient>
<linearGradient id="paint27_linear_130_5662" x1="76.6568" y1="34.292" x2="76.6568" y2="59.5583" gradientUnits="userSpaceOnUse">
<stop stop-color="white" stop-opacity="0"/>
<stop offset="1" stop-color="#5E60DA"/>
</linearGradient>
<linearGradient id="paint28_linear_130_5662" x1="31.923" y1="34.292" x2="31.923" y2="59.5583" gradientUnits="userSpaceOnUse">
<stop stop-color="#7577FF" stop-opacity="0"/>
<stop offset="1" stop-color="#5E60DA"/>
</linearGradient>
<linearGradient id="paint29_linear_130_5662" x1="31.923" y1="34.292" x2="31.923" y2="59.5583" gradientUnits="userSpaceOnUse">
<stop stop-color="white" stop-opacity="0"/>
<stop offset="1" stop-color="#5E60DA"/>
</linearGradient>
</defs>
</svg>
