<svg width="67" height="76" viewBox="0 0 67 76" fill="none" xmlns="http://www.w3.org/2000/svg">
<path fill-rule="evenodd" clip-rule="evenodd" d="M63.9688 75.1562H3.03125C2.49261 75.1562 1.97572 74.9422 1.59487 74.5614C1.21401 74.1805 1 73.6636 1 73.125V54.8438C1 54.3051 1.21401 53.7882 1.59487 53.4074C1.97572 53.0265 2.49261 52.8125 3.03125 52.8125H63.9688C64.5074 52.8125 65.0243 53.0265 65.4051 53.4074C65.786 53.7882 66 54.3051 66 54.8438V73.125C66 73.6636 65.786 74.1805 65.4051 74.5614C65.0243 74.9422 64.5074 75.1562 63.9688 75.1562ZM16.2344 66.0156C16.2344 65.7463 16.1274 65.4879 15.9369 65.2974C15.7465 65.107 15.4881 65 15.2188 65H7.09375C6.53289 65 6.07812 65.4548 6.07812 66.0156V70.0781C6.07812 70.639 6.53289 71.0938 7.09375 71.0938H15.2188C15.4881 71.0938 15.7465 70.9867 15.9369 70.7963C16.1274 70.6059 16.2344 70.3474 16.2344 70.0781V66.0156ZM63.9688 49.1562H3.03125C2.49261 49.1562 1.97572 48.9422 1.59487 48.5614C1.21401 48.1805 1 47.6636 1 47.125V28.8438C1 28.3051 1.21401 27.7882 1.59487 27.4074C1.97572 27.0265 2.49261 26.8125 3.03125 26.8125H63.9688C64.5074 26.8125 65.0243 27.0265 65.4051 27.4074C65.786 27.7882 66 28.3051 66 28.8438V47.125C66 47.6636 65.786 48.1805 65.4051 48.5614C65.0243 48.9422 64.5074 49.1562 63.9688 49.1562ZM16.2344 40.0156C16.2344 39.7463 16.1274 39.4879 15.9369 39.2974C15.7465 39.107 15.4881 39 15.2188 39H7.09375C6.53289 39 6.07812 39.4548 6.07812 40.0156V44.0781C6.07812 44.639 6.53289 45.0938 7.09375 45.0938H15.2188C15.4881 45.0938 15.7465 44.9867 15.9369 44.7963C16.1274 44.6059 16.2344 44.3474 16.2344 44.0781V40.0156ZM3.03125 23.3438H63.9688C64.5074 23.3438 65.0243 23.1297 65.4051 22.7489C65.786 22.368 66 21.8511 66 21.3125V3.03125C66 2.49261 65.786 1.97572 65.4051 1.59486C65.0243 1.21401 64.5074 1 63.9688 1H3.03125C2.49261 1 1.97572 1.21401 1.59487 1.59486C1.21401 1.97572 1 2.49261 1 3.03125V21.3125C1 21.8511 1.21401 22.368 1.59487 22.7489C1.97572 23.1297 2.49261 23.3438 3.03125 23.3438ZM15.9369 13.4849C16.1274 13.6754 16.2344 13.9338 16.2344 14.2031V18.2656C16.2344 18.5349 16.1274 18.7934 15.9369 18.9838C15.7465 19.1742 15.4881 19.2812 15.2188 19.2812H7.09375C6.53289 19.2812 6.07812 18.8265 6.07812 18.2656V14.2031C6.07812 13.6423 6.53289 13.1875 7.09375 13.1875H15.2188C15.4881 13.1875 15.7465 13.2945 15.9369 13.4849Z" fill="url(#paint0_linear_130_5601)" fill-opacity="0.5"/>
<path d="M1.59487 74.5614L1.94842 74.2078L1.94842 74.2078L1.59487 74.5614ZM1.59487 53.4074L1.94842 53.7609H1.94842L1.59487 53.4074ZM65.4051 74.5614L65.0516 74.2078V74.2078L65.4051 74.5614ZM1.59487 48.5614L1.94842 48.2078H1.94842L1.59487 48.5614ZM1.59487 27.4074L1.24131 27.0538H1.24131L1.59487 27.4074ZM65.4051 27.4074L65.7587 27.0538V27.0538L65.4051 27.4074ZM15.9369 44.7963L16.2905 45.1499L16.2905 45.1499L15.9369 44.7963ZM65.4051 22.7489L65.0516 22.3953V22.3953L65.4051 22.7489ZM1.59487 1.59486L1.94842 1.94842H1.94842L1.59487 1.59486ZM1.59487 22.7489L1.94842 22.3953H1.94842L1.59487 22.7489ZM3.03125 74.6562H63.9688V75.6562H3.03125V74.6562ZM1.94842 74.2078C2.23546 74.4949 2.62516 74.6562 3.03125 74.6562V75.6562C2.36006 75.6562 1.71598 75.3896 1.24131 74.9149L1.94842 74.2078ZM1.5 73.125C1.5 73.5311 1.66138 73.9208 1.94842 74.2078L1.24131 74.9149C0.766648 74.4403 0.5 73.7962 0.5 73.125H1.5ZM1.5 54.8438V73.125H0.5V54.8438H1.5ZM1.94842 53.7609C1.66138 54.048 1.5 54.4377 1.5 54.8438H0.5C0.5 54.1726 0.766648 53.5285 1.24131 53.0538L1.94842 53.7609ZM3.03125 53.3125C2.62516 53.3125 2.23546 53.4739 1.94842 53.7609L1.24131 53.0538C1.71598 52.5791 2.36006 52.3125 3.03125 52.3125V53.3125ZM63.9688 53.3125H3.03125V52.3125H63.9688V53.3125ZM65.0516 53.7609C64.7645 53.4739 64.3748 53.3125 63.9688 53.3125V52.3125C64.6399 52.3125 65.284 52.5791 65.7587 53.0538L65.0516 53.7609ZM65.5 54.8438C65.5 54.4377 65.3386 54.048 65.0516 53.7609L65.7587 53.0538C66.2333 53.5285 66.5 54.1726 66.5 54.8438H65.5ZM65.5 73.125V54.8438H66.5V73.125H65.5ZM65.0516 74.2078C65.3386 73.9208 65.5 73.5311 65.5 73.125H66.5C66.5 73.7962 66.2333 74.4403 65.7587 74.9149L65.0516 74.2078ZM63.9688 74.6562C64.3748 74.6562 64.7645 74.4949 65.0516 74.2078L65.7587 74.9149C65.284 75.3896 64.6399 75.6562 63.9688 75.6562V74.6562ZM16.2905 64.9439C16.5747 65.2281 16.7344 65.6138 16.7344 66.0156H15.7344C15.7344 65.8789 15.68 65.7476 15.5834 65.651L16.2905 64.9439ZM15.2188 64.5C15.6206 64.5 16.0063 64.6596 16.2905 64.9439L15.5834 65.651C15.4868 65.5544 15.3555 65.5 15.2188 65.5V64.5ZM7.09375 64.5H15.2188V65.5H7.09375V64.5ZM5.57812 66.0156C5.57812 65.1786 6.25675 64.5 7.09375 64.5V65.5C6.80904 65.5 6.57812 65.7309 6.57812 66.0156H5.57812ZM5.57812 70.0781V66.0156H6.57812V70.0781H5.57812ZM7.09375 71.5938C6.25675 71.5938 5.57812 70.9151 5.57812 70.0781H6.57812C6.57812 70.3628 6.80904 70.5938 7.09375 70.5938V71.5938ZM15.2188 71.5938H7.09375V70.5938H15.2188V71.5938ZM16.2905 71.1499C16.0063 71.4341 15.6206 71.5938 15.2188 71.5938V70.5938C15.3555 70.5938 15.4868 70.5394 15.5834 70.4428L16.2905 71.1499ZM16.7344 70.0781C16.7344 70.48 16.5747 70.8656 16.2905 71.1499L15.5834 70.4428C15.68 70.3461 15.7344 70.2149 15.7344 70.0781H16.7344ZM16.7344 66.0156V70.0781H15.7344V66.0156H16.7344ZM3.03125 48.6562H63.9688V49.6562H3.03125V48.6562ZM1.94842 48.2078C2.23546 48.4949 2.62516 48.6562 3.03125 48.6562V49.6562C2.36006 49.6562 1.71598 49.3896 1.24131 48.9149L1.94842 48.2078ZM1.5 47.125C1.5 47.5311 1.66138 47.9208 1.94842 48.2078L1.24131 48.9149C0.766648 48.4403 0.5 47.7962 0.5 47.125H1.5ZM1.5 28.8438V47.125H0.5V28.8438H1.5ZM1.94842 27.7609C1.66138 28.048 1.5 28.4377 1.5 28.8438H0.5C0.5 28.1726 0.766648 27.5285 1.24131 27.0538L1.94842 27.7609ZM3.03125 27.3125C2.62516 27.3125 2.23546 27.4739 1.94842 27.7609L1.24131 27.0538C1.71598 26.5791 2.36006 26.3125 3.03125 26.3125V27.3125ZM63.9688 27.3125H3.03125V26.3125H63.9688V27.3125ZM65.0516 27.7609C64.7645 27.4739 64.3748 27.3125 63.9688 27.3125V26.3125C64.6399 26.3125 65.284 26.5791 65.7587 27.0538L65.0516 27.7609ZM65.5 28.8438C65.5 28.4377 65.3386 28.048 65.0516 27.7609L65.7587 27.0538C66.2333 27.5285 66.5 28.1726 66.5 28.8438H65.5ZM65.5 47.125V28.8438H66.5V47.125H65.5ZM65.0516 48.2078C65.3386 47.9208 65.5 47.5311 65.5 47.125H66.5C66.5 47.7962 66.2333 48.4403 65.7587 48.9149L65.0516 48.2078ZM63.9688 48.6562C64.3748 48.6562 64.7645 48.4949 65.0516 48.2078L65.7587 48.9149C65.284 49.3896 64.6399 49.6562 63.9688 49.6562V48.6562ZM16.2905 38.9439C16.5747 39.2281 16.7344 39.6138 16.7344 40.0156H15.7344C15.7344 39.8788 15.68 39.7476 15.5834 39.651L16.2905 38.9439ZM15.2188 38.5C15.6206 38.5 16.0063 38.6596 16.2905 38.9439L15.5834 39.651C15.4868 39.5544 15.3555 39.5 15.2188 39.5V38.5ZM7.09375 38.5H15.2188V39.5H7.09375V38.5ZM5.57812 40.0156C5.57812 39.1786 6.25675 38.5 7.09375 38.5V39.5C6.80904 39.5 6.57812 39.7309 6.57812 40.0156H5.57812ZM5.57812 44.0781V40.0156H6.57812V44.0781H5.57812ZM7.09375 45.5938C6.25675 45.5938 5.57812 44.9151 5.57812 44.0781H6.57812C6.57812 44.3628 6.80903 44.5938 7.09375 44.5938V45.5938ZM15.2188 45.5938H7.09375V44.5938H15.2188V45.5938ZM16.2905 45.1499C16.0063 45.4341 15.6206 45.5938 15.2188 45.5938V44.5938C15.3555 44.5938 15.4868 44.5394 15.5834 44.4428L16.2905 45.1499ZM16.7344 44.0781C16.7344 44.48 16.5747 44.8656 16.2905 45.1499L15.5834 44.4428C15.68 44.3461 15.7344 44.2149 15.7344 44.0781H16.7344ZM16.7344 40.0156V44.0781H15.7344V40.0156H16.7344ZM63.9688 23.8438H3.03125V22.8438H63.9688V23.8438ZM65.7587 23.1024C65.284 23.5771 64.6399 23.8438 63.9688 23.8438V22.8438C64.3748 22.8438 64.7645 22.6824 65.0516 22.3953L65.7587 23.1024ZM66.5 21.3125C66.5 21.9837 66.2333 22.6278 65.7587 23.1024L65.0516 22.3953C65.3386 22.1083 65.5 21.7186 65.5 21.3125H66.5ZM66.5 3.03125V21.3125H65.5V3.03125H66.5ZM65.7587 1.24131C66.2333 1.71597 66.5 2.36005 66.5 3.03125H65.5C65.5 2.62516 65.3386 2.23546 65.0516 1.94842L65.7587 1.24131ZM63.9688 0.5C64.6399 0.5 65.284 0.766647 65.7587 1.24131L65.0516 1.94842C64.7645 1.66138 64.3748 1.5 63.9688 1.5V0.5ZM3.03125 0.5H63.9688V1.5H3.03125V0.5ZM1.24131 1.24131C1.71598 0.766647 2.36006 0.5 3.03125 0.5V1.5C2.62516 1.5 2.23546 1.66138 1.94842 1.94842L1.24131 1.24131ZM0.5 3.03125C0.5 2.36006 0.766647 1.71597 1.24131 1.24131L1.94842 1.94842C1.66138 2.23546 1.5 2.62515 1.5 3.03125H0.5ZM0.5 21.3125V3.03125H1.5V21.3125H0.5ZM1.24131 23.1024C0.766648 22.6278 0.5 21.9837 0.5 21.3125H1.5C1.5 21.7186 1.66138 22.1083 1.94842 22.3953L1.24131 23.1024ZM3.03125 23.8438C2.36006 23.8438 1.71598 23.5771 1.24131 23.1024L1.94842 22.3953C2.23546 22.6824 2.62516 22.8438 3.03125 22.8438V23.8438ZM15.7344 14.2031C15.7344 14.0663 15.68 13.9351 15.5834 13.8385L16.2905 13.1314C16.5747 13.4156 16.7344 13.8013 16.7344 14.2031H15.7344ZM15.7344 18.2656V14.2031H16.7344V18.2656H15.7344ZM15.5834 18.6303C15.68 18.5336 15.7344 18.4024 15.7344 18.2656H16.7344C16.7344 18.6675 16.5747 19.0531 16.2905 19.3374L15.5834 18.6303ZM15.2188 18.7812C15.3555 18.7812 15.4868 18.7269 15.5834 18.6303L16.2905 19.3374C16.0063 19.6216 15.6206 19.7812 15.2188 19.7812V18.7812ZM7.09375 18.7812H15.2188V19.7812H7.09375V18.7812ZM6.57812 18.2656C6.57812 18.5503 6.80904 18.7812 7.09375 18.7812V19.7812C6.25675 19.7812 5.57812 19.1026 5.57812 18.2656H6.57812ZM6.57812 14.2031V18.2656H5.57812V14.2031H6.57812ZM7.09375 13.6875C6.80904 13.6875 6.57812 13.9184 6.57812 14.2031H5.57812C5.57812 13.3661 6.25675 12.6875 7.09375 12.6875V13.6875ZM15.2188 13.6875H7.09375V12.6875H15.2188V13.6875ZM15.5834 13.8385C15.4868 13.7419 15.3555 13.6875 15.2188 13.6875V12.6875C15.6206 12.6875 16.0063 12.8471 16.2905 13.1314L15.5834 13.8385Z" fill="url(#paint1_linear_130_5601)"/>
<defs>
<linearGradient id="paint0_linear_130_5601" x1="33.5" y1="75.1562" x2="33.5" y2="1" gradientUnits="userSpaceOnUse">
<stop stop-color="#7577FF" stop-opacity="0.2"/>
<stop offset="1" stop-color="#5E60DA"/>
</linearGradient>
<linearGradient id="paint1_linear_130_5601" x1="33.5" y1="75.1562" x2="33.5" y2="1" gradientUnits="userSpaceOnUse">
<stop stop-color="white" stop-opacity="0"/>
<stop offset="1" stop-color="#5E60DA"/>
</linearGradient>
</defs>
</svg>
