<svg width="67" height="78" viewBox="0 0 67 78" fill="none" xmlns="http://www.w3.org/2000/svg">
<g opacity="0.5">
<path fill-rule="evenodd" clip-rule="evenodd" d="M41.083 42.4115C42.1837 43.5232 43.9675 43.5232 45.0681 42.4115C46.2068 41.2998 46.2068 39.4982 45.1061 38.3865L34.2134 27.3465C33.9477 27.0782 33.6441 26.8865 33.3025 26.7332C32.9609 26.5798 32.6193 26.5032 32.2398 26.5032C31.8602 26.5032 31.4807 26.5798 31.1391 26.7332C30.7975 26.8865 30.4939 27.0782 30.2282 27.3465L19.3734 38.3865C18.2728 39.4982 18.2728 41.2998 19.3734 42.4115C20.4741 43.5232 22.2579 43.5232 23.3586 42.4115L29.3932 36.2782V54.7932C29.3932 56.3648 30.6457 57.6298 32.2398 57.6298C33.7959 57.6298 35.0483 56.3648 35.0483 54.7932V36.2782L41.083 42.4115ZM61.7164 27.598C62.6085 27.5877 63.5799 27.5765 64.4625 27.5765C65.4114 27.5765 66.2084 28.3432 66.2084 29.3015V60.1215C66.2084 69.6282 58.5417 77.3332 49.1292 77.3332H18.9559C9.05 77.3332 1.04175 69.2448 1.04175 59.2782V17.9548C1.04175 8.44817 8.67046 0.666504 18.1589 0.666504H38.4262C39.3751 0.666504 40.1721 1.4715 40.1721 2.42984V14.7732C40.1721 21.7882 45.8652 27.5382 52.8487 27.5765C54.445 27.5765 55.8623 27.5886 57.1073 27.5991C58.0823 27.6074 58.9515 27.6148 59.7183 27.6148C60.2586 27.6148 60.9589 27.6068 61.7164 27.598ZM62.7762 22.0028C59.6564 22.0143 55.9825 22.0028 53.3371 21.976C49.1395 21.976 45.6819 18.4838 45.6819 14.2442V4.1395C45.6819 2.48734 47.6631 1.667 48.7979 2.85917C51.7197 5.92481 56.1922 10.6225 59.9731 14.5939C61.5062 16.2042 62.9256 17.6951 64.0819 18.9093C65.1863 20.0708 64.3741 21.999 62.7762 22.0028Z" fill="url(#paint0_linear_358_1064)" fill-opacity="0.5"/>
<path d="M45.0681 42.4115L44.7188 42.0537L44.7128 42.0597L45.0681 42.4115ZM41.083 42.4115L40.7266 42.7622L40.7277 42.7633L41.083 42.4115ZM45.1061 38.3865L44.7502 38.7377L44.7508 38.7383L45.1061 38.3865ZM34.2134 27.3465L34.5693 26.9953L34.5687 26.9947L34.2134 27.3465ZM31.1391 26.7332L31.3439 27.1893L31.1391 26.7332ZM30.2282 27.3465L29.8729 26.9947L29.8717 26.996L30.2282 27.3465ZM19.3734 38.3865L19.7287 38.7383L19.73 38.7371L19.3734 38.3865ZM19.3734 42.4115L19.7287 42.0597H19.7287L19.3734 42.4115ZM23.3586 42.4115L23.7139 42.7633L23.715 42.7622L23.3586 42.4115ZM29.3932 36.2782H29.8932V35.0571L29.0368 35.9275L29.3932 36.2782ZM35.0483 36.2782L35.4048 35.9275L34.5483 35.0571V36.2782H35.0483ZM61.7164 27.598L61.7106 27.098L61.7164 27.598ZM52.8487 27.5765L52.8459 28.0765H52.8487V27.5765ZM57.1073 27.5991L57.103 28.0991L57.1073 27.5991ZM53.3371 21.976L53.3422 21.476H53.3371V21.976ZM62.7762 22.0028L62.7751 21.5028L62.7744 21.5028L62.7762 22.0028ZM48.7979 2.85917L48.4357 3.20391L48.4359 3.20414L48.7979 2.85917ZM59.9731 14.5939L60.3353 14.2491L59.9731 14.5939ZM64.0819 18.9093L64.4442 18.5648L64.444 18.5645L64.0819 18.9093ZM44.7128 42.0597C43.8078 42.9738 42.3433 42.9738 41.4383 42.0597L40.7277 42.7633C42.024 44.0726 44.1271 44.0726 45.4235 42.7633L44.7128 42.0597ZM44.7508 38.7383C45.6575 39.6541 45.6576 41.1372 44.7189 42.0537L45.4174 42.7693C46.756 41.4624 46.756 39.3423 45.4614 38.0347L44.7508 38.7383ZM33.8574 27.6977L44.7502 38.7377L45.462 38.0353L34.5693 26.9953L33.8574 27.6977ZM33.0977 27.1893C33.3967 27.3235 33.6451 27.4832 33.8581 27.6983L34.5687 26.9947C34.2503 26.6731 33.8914 26.4495 33.5072 26.277L33.0977 27.1893ZM32.2398 27.0032C32.546 27.0032 32.818 27.0638 33.0977 27.1893L33.5072 26.277C33.1038 26.0959 32.6926 26.0032 32.2398 26.0032V27.0032ZM31.3439 27.1893C31.617 27.0667 31.9262 27.0032 32.2398 27.0032V26.0032C31.7943 26.0032 31.3444 26.0929 30.9343 26.277L31.3439 27.1893ZM30.5835 27.6983C30.7965 27.4832 31.0449 27.3235 31.3439 27.1893L30.9343 26.277C30.5502 26.4495 30.1913 26.6731 29.8729 26.9947L30.5835 27.6983ZM19.73 38.7371L30.5847 27.6971L29.8717 26.996L19.0169 38.036L19.73 38.7371ZM19.7287 42.0597C18.821 41.1429 18.821 39.6551 19.7287 38.7383L19.0181 38.0347C17.7245 39.3412 17.7245 41.4568 19.0181 42.7633L19.7287 42.0597ZM23.0033 42.0597C22.0983 42.9738 20.6337 42.9738 19.7287 42.0597L19.0181 42.7633C20.3144 44.0726 22.4176 44.0726 23.7139 42.7633L23.0033 42.0597ZM29.0368 35.9275L23.0022 42.0608L23.715 42.7622L29.7496 36.6288L29.0368 35.9275ZM29.8932 54.7932V36.2782H28.8932V54.7932H29.8932ZM32.2398 57.1298C30.9222 57.1298 29.8932 56.089 29.8932 54.7932H28.8932C28.8932 56.6407 30.3693 58.1298 32.2398 58.1298V57.1298ZM34.5483 54.7932C34.5483 56.0934 33.5151 57.1298 32.2398 57.1298V58.1298C34.0767 58.1298 35.5483 56.6363 35.5483 54.7932H34.5483ZM34.5483 36.2782V54.7932H35.5483V36.2782H34.5483ZM41.4394 42.0608L35.4048 35.9275L34.6919 36.6288L40.7266 42.7622L41.4394 42.0608ZM64.4625 27.0765C63.5765 27.0765 62.6021 27.0878 61.7106 27.098L61.7222 28.098C62.6149 28.0877 63.5833 28.0765 64.4625 28.0765V27.0765ZM66.7084 29.3015C66.7084 28.0575 65.6779 27.0765 64.4625 27.0765V28.0765C65.1449 28.0765 65.7084 28.6289 65.7084 29.3015H66.7084ZM66.7084 60.1215V29.3015H65.7084V60.1215H66.7084ZM49.1292 77.8332C58.8211 77.8332 66.7084 69.9011 66.7084 60.1215H65.7084C65.7084 69.3553 58.2624 76.8332 49.1292 76.8332V77.8332ZM18.9559 77.8332H49.1292V76.8332H18.9559V77.8332ZM0.541748 59.2782C0.541748 69.517 8.76987 77.8332 18.9559 77.8332V76.8332C9.33013 76.8332 1.54175 68.9727 1.54175 59.2782H0.541748ZM0.541748 17.9548V59.2782H1.54175V17.9548H0.541748ZM18.1589 0.166504C8.3882 0.166504 0.541748 8.17818 0.541748 17.9548H1.54175C1.54175 8.71816 8.95272 1.1665 18.1589 1.1665V0.166504ZM38.4262 0.166504H18.1589V1.1665H38.4262V0.166504ZM40.6721 2.42984C40.6721 1.20006 39.6559 0.166504 38.4262 0.166504V1.1665C39.0943 1.1665 39.6721 1.74294 39.6721 2.42984H40.6721ZM40.6721 14.7732V2.42984H39.6721V14.7732H40.6721ZM52.8514 27.0765C46.1451 27.0397 40.6721 21.5152 40.6721 14.7732H39.6721C39.6721 22.0611 45.5853 28.0366 52.8459 28.0765L52.8514 27.0765ZM57.1115 27.0992C55.8667 27.0886 54.4474 27.0765 52.8487 27.0765V28.0765C54.4426 28.0765 55.858 28.0885 57.103 28.0991L57.1115 27.0992ZM59.7183 27.1148C58.9541 27.1148 58.0871 27.1075 57.1115 27.0992L57.103 28.0991C58.0774 28.1074 58.949 28.1148 59.7183 28.1148V27.1148ZM61.7106 27.098C60.9521 27.1068 60.255 27.1148 59.7183 27.1148V28.1148C60.2621 28.1148 60.9657 28.1067 61.7222 28.098L61.7106 27.098ZM53.3321 22.476C55.98 22.5028 59.6562 22.5143 62.7781 22.5028L62.7744 21.5028C59.6567 21.5143 55.9851 21.5028 53.3422 21.476L53.3321 22.476ZM45.1819 14.2442C45.1819 18.7553 48.8586 22.476 53.3371 22.476V21.476C49.4203 21.476 46.1819 18.2124 46.1819 14.2442H45.1819ZM45.1819 4.1395V14.2442H46.1819V4.1395H45.1819ZM49.16 2.51444C47.701 0.981629 45.1819 2.05487 45.1819 4.1395H46.1819C46.1819 2.9198 47.6251 2.35238 48.4357 3.20391L49.16 2.51444ZM60.3353 14.2491C56.5543 10.2778 52.0818 5.57997 49.1598 2.51421L48.4359 3.20414C51.3577 6.26965 55.83 10.9672 59.611 14.9387L60.3353 14.2491ZM64.444 18.5645C63.2877 17.3503 61.8683 15.8594 60.3353 14.2491L59.611 14.9387C61.1441 16.5489 62.5635 18.0398 63.7198 19.2541L64.444 18.5645ZM62.7774 22.5028C64.8225 22.4979 65.8453 20.0382 64.4442 18.5648L63.7195 19.2539C64.5274 20.1035 63.9257 21.5001 62.7751 21.5028L62.7774 22.5028Z" fill="url(#paint1_linear_358_1064)"/>
</g>
<defs>
<linearGradient id="paint0_linear_358_1064" x1="33.6251" y1="0.666504" x2="33.6251" y2="77.3332" gradientUnits="userSpaceOnUse">
<stop stop-color="white" stop-opacity="0.5"/>
<stop offset="1" stop-color="white" stop-opacity="0.1"/>
</linearGradient>
<linearGradient id="paint1_linear_358_1064" x1="33.6251" y1="0.666504" x2="33.6251" y2="77.3332" gradientUnits="userSpaceOnUse">
<stop stop-color="white"/>
<stop offset="1" stop-opacity="0"/>
</linearGradient>
</defs>
</svg>
