<svg width="186" height="49" viewBox="0 0 186 49" fill="none" xmlns="http://www.w3.org/2000/svg">
<g opacity="0.5">
<rect x="0.609375" y="0.359375" width="185.031" height="48.2812" rx="24.1406" fill="url(#paint0_linear_125_5283)" fill-opacity="0.25"/>
<path d="M31.2273 11.767V35.6875H29.8068V11.767H31.2273Z" fill="#828282"/>
<g opacity="0.5">
<path d="M158.646 36.3536C158.842 36.5488 159.158 36.5488 159.354 36.3536C159.549 36.1583 159.549 35.8417 159.354 35.6464L158.646 36.3536ZM152.646 30.3536L158.646 36.3536L159.354 35.6464L153.354 29.6464L152.646 30.3536Z" fill="url(#paint1_linear_125_5283)"/>
<circle cx="146.767" cy="23.7664" r="8.98856" stroke="url(#paint2_linear_125_5283)"/>
</g>
<rect x="0.609375" y="0.359375" width="185.031" height="48.2812" rx="24.1406" stroke="url(#paint3_linear_125_5283)" stroke-width="0.71875"/>
</g>
<defs>
<linearGradient id="paint0_linear_125_5283" x1="93.125" y1="0" x2="93.125" y2="49" gradientUnits="userSpaceOnUse">
<stop stop-color="white" stop-opacity="0.5"/>
<stop offset="1" stop-color="white" stop-opacity="0.1"/>
</linearGradient>
<linearGradient id="paint1_linear_125_5283" x1="156" y1="30" x2="156" y2="36" gradientUnits="userSpaceOnUse">
<stop stop-color="white"/>
<stop offset="1" stop-color="white" stop-opacity="0.25"/>
</linearGradient>
<linearGradient id="paint2_linear_125_5283" x1="146.767" y1="14.7778" x2="150" y2="41.5" gradientUnits="userSpaceOnUse">
<stop stop-color="white"/>
<stop offset="1" stop-color="#151515"/>
</linearGradient>
<linearGradient id="paint3_linear_125_5283" x1="93.125" y1="0" x2="93.125" y2="49" gradientUnits="userSpaceOnUse">
<stop stop-color="white"/>
<stop offset="1" stop-opacity="0"/>
</linearGradient>
</defs>
</svg>
