<svg width="78" height="78" viewBox="0 0 78 78" fill="none" xmlns="http://www.w3.org/2000/svg">
<g opacity="0.5">
<path fill-rule="evenodd" clip-rule="evenodd" d="M44.4329 11.7076H56.2013C70.3463 11.7076 77.2463 19.2593 77.2079 34.746V53.4143C77.2079 68.211 68.0846 77.3343 53.2496 77.3343H24.4613C9.70293 77.3343 0.54126 68.211 0.54126 53.376V24.5876C0.54126 8.71765 7.59459 0.667646 21.5096 0.667646H27.5663C31.1351 0.629313 34.4663 2.27765 36.6513 5.07598L40.0246 9.56098C41.0979 10.9026 42.7079 11.7076 44.4329 11.7076ZM21.1263 51.6126H56.6229C58.1946 51.6126 59.4596 50.3093 59.4596 48.7376C59.4596 47.1276 58.1946 45.8626 56.6229 45.8626H21.1263C19.5163 45.8626 18.2513 47.1276 18.2513 48.7376C18.2513 50.3093 19.5163 51.6126 21.1263 51.6126Z" fill="url(#paint0_linear_125_5165)" fill-opacity="0.5"/>
<path d="M77.2079 34.746L76.7079 34.7447V34.746H77.2079ZM27.5663 0.667646V1.16768L27.5716 1.16762L27.5663 0.667646ZM36.6513 5.07598L37.0509 4.77538L37.0454 4.76826L36.6513 5.07598ZM40.0246 9.56098L39.625 9.86153L39.6295 9.8675L39.6342 9.87333L40.0246 9.56098ZM56.2013 11.2076H44.4329V12.2076H56.2013V11.2076ZM77.7079 34.7472C77.7272 26.9402 75.9992 21.0356 72.3927 17.0823C68.7782 13.1202 63.3596 11.2076 56.2013 11.2076V12.2076C63.1879 12.2076 68.2918 14.0709 71.654 17.7563C75.0241 21.4505 76.7269 27.0651 76.7079 34.7447L77.7079 34.7472ZM77.7079 53.4143V34.746H76.7079V53.4143H77.7079ZM53.2496 77.8343C60.7705 77.8343 66.8975 75.5196 71.1452 71.2768C75.393 67.034 77.7079 60.9164 77.7079 53.4143H76.7079C76.7079 60.7089 74.4612 66.5513 70.4385 70.5693C66.4158 74.5873 60.5637 76.8343 53.2496 76.8343V77.8343ZM24.4613 77.8343H53.2496V76.8343H24.4613V77.8343ZM0.0412598 53.376C0.0412598 60.8974 2.36587 67.0244 6.61333 71.2718C10.8608 75.5192 16.9781 77.8343 24.4613 77.8343V76.8343C17.1861 76.8343 11.3434 74.5877 7.32044 70.5647C3.29748 66.5418 1.04126 60.6895 1.04126 53.376H0.0412598ZM0.0412598 24.5876V53.376H1.04126V24.5876H0.0412598ZM21.5096 0.167646C14.4547 0.167646 9.05587 2.21153 5.43129 6.34683C1.81748 10.4698 0.0412598 16.589 0.0412598 24.5876H1.04126C1.04126 16.7163 2.79171 10.8755 6.18331 7.00597C9.56414 3.14877 14.6495 1.16765 21.5096 1.16765V0.167646ZM27.5663 0.167646H21.5096V1.16765H27.5663V0.167646ZM37.0454 4.76826C34.7669 1.85021 31.2895 0.127626 27.5609 0.167675L27.5716 1.16762C30.9807 1.131 34.1656 2.70509 36.2572 5.3837L37.0454 4.76826ZM40.4242 9.26043L37.0508 4.77543L36.2517 5.37653L39.625 9.86153L40.4242 9.26043ZM44.4329 11.2076C42.8656 11.2076 41.3972 10.4763 40.415 9.24863L39.6342 9.87333C40.7987 11.329 42.5502 12.2076 44.4329 12.2076V11.2076ZM56.6229 51.1126H21.1263V52.1126H56.6229V51.1126ZM58.9596 48.7376C58.9596 50.0419 57.9098 51.1126 56.6229 51.1126V52.1126C58.4794 52.1126 59.9596 50.5767 59.9596 48.7376H58.9596ZM56.6229 46.3626C57.9141 46.3626 58.9596 47.3994 58.9596 48.7376H59.9596C59.9596 46.8559 58.4751 45.3626 56.6229 45.3626V46.3626ZM21.1263 46.3626H56.6229V45.3626H21.1263V46.3626ZM18.7513 48.7376C18.7513 47.4038 19.7924 46.3626 21.1263 46.3626V45.3626C19.2401 45.3626 17.7513 46.8515 17.7513 48.7376H18.7513ZM21.1263 51.1126C19.7967 51.1126 18.7513 50.0375 18.7513 48.7376H17.7513C17.7513 50.5811 19.2358 52.1126 21.1263 52.1126V51.1126Z" fill="url(#paint1_linear_125_5165)"/>
</g>
<defs>
<linearGradient id="paint0_linear_125_5165" x1="38.8747" y1="0.666992" x2="38.8747" y2="77.3343" gradientUnits="userSpaceOnUse">
<stop stop-color="white" stop-opacity="0.5"/>
<stop offset="1" stop-color="white" stop-opacity="0.1"/>
</linearGradient>
<linearGradient id="paint1_linear_125_5165" x1="38.8747" y1="0.666992" x2="38.8747" y2="77.3343" gradientUnits="userSpaceOnUse">
<stop stop-color="white"/>
<stop offset="1" stop-opacity="0"/>
</linearGradient>
</defs>
</svg>
